<svg width="142" height="142" viewBox="0 0 142 142" fill="none" xmlns="http://www.w3.org/2000/svg">
<g filter="url(#filter0_d_56_333)">
<rect x="24" y="24" width="94" height="94" rx="47" fill="url(#paint0_linear_56_333)"/>
<g filter="url(#filter1_d_56_333)">
<path d="M73.4793 46.7371C91.4487 48.2762 96.8731 74.5571 95.8894 89.7385C95.7642 91.1327 95.6339 92.9615 94.456 93.8772C94.6119 93.6547 94.6987 93.409 94.6885 93.1452C94.6834 92.9796 94.5735 92.8011 94.4381 92.8037C90.649 92.8787 50.0318 92.6382 46.6771 92.8865C45.9285 91.6216 46.0869 89.7126 46 88.3417C46.3373 73.2586 53.5067 45.9042 73.4282 46.7345H73.4793V46.7371ZM93.2347 84.7151C93.2603 84.3374 93.3114 83.9262 93.1325 83.6002C92.8745 83.1398 92.0339 82.9924 91.4539 82.9561C84.3458 82.6432 77.0384 85.116 71.9488 90.0825C71.3688 90.5688 70.5844 91.9863 71.724 92.0665C73.2698 92.0691 77.1789 92.0432 81.5404 92.0277C84.6345 92.0148 87.1563 92.007 89.8697 91.9941C90.4548 91.9889 91.3721 91.9915 91.7221 91.9837C92.0492 91.9708 92.3302 91.857 92.5091 91.5362L92.5219 91.513C92.7723 91.0137 92.7441 90.5223 92.8361 89.56C92.9613 88.0545 93.1402 85.8688 93.2347 84.7151ZM92.9613 80.297C93.4059 79.5701 92.9715 78.6079 92.808 77.5706C92.527 75.8996 91.7451 75.7004 90.1866 75.8944C79.039 77.2007 68.2031 81.4869 60.8268 90.1084C59.6796 91.4767 59.5723 92.4674 61.5626 92.3795C62.8453 92.4028 65.0298 92.4545 66.1796 92.47C66.9231 92.5011 67.5721 92.2838 68.0524 91.6863L68.0805 91.6526C72.3372 85.7213 80.6563 81.1713 87.7951 80.7238C88.7328 80.6876 89.7241 80.729 90.7027 80.7574C91.4334 80.7652 92.4938 80.848 92.9613 80.297ZM91.6199 73.0646C92.0492 72.63 92.0032 71.8747 91.878 71.2694C90.6362 65.6459 88.4159 59.787 84.494 55.5449C82.7285 54.1584 83.2216 56.877 83.403 57.9376C83.9165 61.2149 83.3749 64.5311 81.8291 67.5187C77.4804 76.7222 66.9742 73.5354 59.7614 79.1252C56.8921 81.3058 55.0703 84.4332 53.3355 87.5424C52.6763 88.8099 51.8484 90.0023 51.2608 91.3008C50.5326 93.1788 52.6763 92.7003 54.2553 92.7649C55.1189 92.7468 56.1179 92.8425 56.7413 92.1415L56.7694 92.1131C64.2914 81.0963 76.857 75.3849 89.7624 73.7009C90.3884 73.6207 91.2316 73.4966 91.6199 73.0646ZM78.0374 68.168C81.4944 63.7033 80.8863 58.949 79.9639 53.7962C79.8004 52.8805 79.7135 51.8174 78.9598 51.2018C78.4462 50.7931 77.5469 50.5396 76.7369 50.2938C76.3332 50.1904 75.9014 50.0662 75.5003 50.1697C74.882 50.2809 74.9842 51.4423 75.1247 52.1252C75.4671 53.7988 75.5974 55.444 75.4543 57.0244C75.1656 61.0054 72.9095 64.7095 69.7796 67.0609C62.5489 72.1877 49.968 70.9952 48.7364 83.2536C48.5908 84.6013 48.5346 85.9878 48.4477 87.4104C48.3966 88.1606 48.5346 89.4565 49.2679 89.0271L49.2934 89.009C49.8351 88.6572 50.2132 87.6096 50.5096 86.9293C53.057 80.5195 58.489 75.4392 64.9481 73.3077C69.3912 71.8126 74.8641 72.1955 78.0374 68.168ZM72.8661 57.6116C73.1088 55.9613 72.9708 54.267 72.6131 52.6219C72.3704 51.6441 72.1941 50.5965 71.4506 50.2033C71.052 50.0145 70.564 50.0559 70.1245 50.1102C69.3938 50.2137 68.5813 50.3456 68.1699 50.7025C67.6538 51.1319 67.6002 51.9597 67.4929 52.6322C66.6599 59.2516 60.5611 63.7913 54.4673 65.4726C53.9768 65.6589 53.6216 65.8554 53.3738 66.2228C52.6891 67.5135 52.1627 69.526 51.6415 70.8555C51.5214 71.2151 51.3681 71.6574 51.4652 72.0066L51.4729 72.0325C52.0094 72.8887 53.4147 71.7273 54.0943 71.3237C55.5021 70.4132 56.9636 69.5803 58.5324 68.9621C63.3001 67.0479 67.9476 67.0634 71.006 62.4074C71.9565 60.9821 72.6361 59.2826 72.8661 57.6116ZM64.3885 54.7921C64.9174 53.6229 64.7437 52.2882 63.2413 53.2349C60.8447 54.9396 56.7643 59.0472 55.796 61.8331V61.8745C55.7755 62.8497 56.9713 62.3919 57.4874 62.0737C60.4461 60.3354 63.1187 57.9427 64.3885 54.7921Z" fill="#F0F0F5"/>
<path d="M94.6885 93.1452C94.6987 93.409 94.6119 93.6547 94.456 93.8772C94.4483 93.885 94.4381 93.8901 94.4305 93.8979C92.6701 94.9222 89.7369 94.4851 87.744 94.4902C85.2605 94.4101 82.6007 94.4618 80.1274 94.4566C70.7275 94.4618 63.1825 94.4385 52.1499 94.4489C50.645 94.4437 49.1861 94.5627 47.8038 93.9082C47.2903 93.6728 46.93 93.3185 46.6771 92.8865C50.0318 92.6382 90.649 92.8787 94.4381 92.8037C94.5735 92.8011 94.6834 92.9796 94.6885 93.1452Z" fill="#F0F0F5"/>
<path d="M94.4305 93.8979C94.4305 93.8979 94.4483 93.885 94.456 93.8772C93.9833 94.5627 92.8847 95.0179 92.1207 95.1136L92.0722 95.1214C90.3935 95.4008 88.6254 95.23 86.9289 95.2533C82.5292 95.2533 78.1192 95.2533 73.7169 95.2533C65.8934 95.1602 58.052 95.4447 50.2413 95.1292C49.365 94.9998 48.5346 94.767 47.7962 94.2393C47.2443 93.8979 46.5698 93.0132 46.6541 92.8891C46.6618 92.8891 46.6694 92.8891 46.6771 92.8865C46.93 93.3185 47.2903 93.6728 47.8038 93.9082C49.1861 94.5627 50.645 94.4437 52.1499 94.4489C63.1825 94.4385 70.7275 94.4618 80.1274 94.4566C82.6007 94.4618 85.2605 94.4101 87.744 94.4902C89.7369 94.4851 92.6701 94.9222 94.4305 93.8979Z" fill="#F0F0F5"/>
</g>
</g>
<defs>
<filter id="filter0_d_56_333" x="0" y="0" width="142" height="142" filterUnits="userSpaceOnUse" color-interpolation-filters="sRGB">
<feFlood flood-opacity="0" result="BackgroundImageFix"/>
<feColorMatrix in="SourceAlpha" type="matrix" values="0 0 0 0 0 0 0 0 0 0 0 0 0 0 0 0 0 0 127 0" result="hardAlpha"/>
<feOffset/>
<feGaussianBlur stdDeviation="12"/>
<feComposite in2="hardAlpha" operator="out"/>
<feColorMatrix type="matrix" values="0 0 0 0 0.121569 0 0 0 0 0.239216 0 0 0 0 0.207843 0 0 0 1 0"/>
<feBlend mode="normal" in2="BackgroundImageFix" result="effect1_dropShadow_56_333"/>
<feBlend mode="normal" in="SourceGraphic" in2="effect1_dropShadow_56_333" result="shape"/>
</filter>
<filter id="filter1_d_56_333" x="42" y="44.5" width="58" height="57" filterUnits="userSpaceOnUse" color-interpolation-filters="sRGB">
<feFlood flood-opacity="0" result="BackgroundImageFix"/>
<feColorMatrix in="SourceAlpha" type="matrix" values="0 0 0 0 0 0 0 0 0 0 0 0 0 0 0 0 0 0 127 0" result="hardAlpha"/>
<feOffset dy="2"/>
<feGaussianBlur stdDeviation="2"/>
<feComposite in2="hardAlpha" operator="out"/>
<feColorMatrix type="matrix" values="0 0 0 0 0.156863 0 0 0 0 0.184314 0 0 0 0 0.294118 0 0 0 0.15 0"/>
<feBlend mode="normal" in2="BackgroundImageFix" result="effect1_dropShadow_56_333"/>
<feBlend mode="normal" in="SourceGraphic" in2="effect1_dropShadow_56_333" result="shape"/>
</filter>
<linearGradient id="paint0_linear_56_333" x1="63" y1="71" x2="75.5" y2="118" gradientUnits="userSpaceOnUse">
<stop stop-color="#10B981"/>
<stop offset="1" stop-color="#059669"/>
</linearGradient>
</defs>
</svg>
