<svg width="254" height="254" viewBox="0 0 254 254" fill="none" xmlns="http://www.w3.org/2000/svg">
<rect width="254" height="254" rx="127" fill="url(#paint0_linear_404_1302)"/>
<g filter="url(#filter0_d_404_1302)">
<path d="M133.644 61.9755C181.803 66.1003 196.34 136.533 193.704 177.219C193.368 180.956 193.019 185.857 189.862 188.311C190.28 187.715 190.513 187.056 190.485 186.349C190.472 185.905 190.177 185.427 189.814 185.434C179.659 185.635 70.8053 184.99 61.8146 185.656C59.8083 182.266 60.2328 177.15 60 173.476C60.9039 133.053 80.1178 59.7433 133.507 61.9686H133.644V61.9755ZM186.589 163.756C186.657 162.744 186.794 161.642 186.315 160.769C185.624 159.535 183.371 159.14 181.816 159.042C162.767 158.204 143.183 164.831 129.543 178.141C127.988 179.444 125.886 183.243 128.94 183.458C133.083 183.465 143.56 183.396 155.248 183.354C163.54 183.32 170.299 183.299 177.571 183.264C179.139 183.25 181.597 183.257 182.535 183.236C183.412 183.202 184.165 182.897 184.644 182.037L184.679 181.975C185.35 180.637 185.274 179.32 185.521 176.741C185.856 172.706 186.336 166.848 186.589 163.756ZM185.856 151.916C187.048 149.968 185.884 147.389 185.445 144.609C184.692 140.131 182.597 139.597 178.42 140.117C148.545 143.618 119.504 155.105 99.7358 178.21C96.6613 181.878 96.3737 184.533 101.708 184.297C105.145 184.359 111 184.498 114.081 184.54C116.074 184.623 117.813 184.041 119.1 182.439L119.176 182.349C130.584 166.453 152.879 154.259 172.011 153.06C174.524 152.963 177.181 153.074 179.803 153.15C181.762 153.171 184.603 153.393 185.856 151.916ZM182.261 132.533C183.412 131.368 183.289 129.344 182.953 127.722C179.625 112.651 173.675 96.9493 163.164 85.5802C158.432 81.8645 159.754 89.1504 160.24 91.9927C161.616 100.776 160.165 109.663 156.022 117.67C144.368 142.335 116.211 133.795 96.8804 148.776C89.1907 154.62 84.3085 163.001 79.6591 171.334C77.8924 174.73 75.6738 177.926 74.0989 181.406C72.1474 186.439 77.8924 185.157 82.1242 185.33C84.4386 185.281 87.1159 185.538 88.7867 183.659L88.8621 183.583C109.021 154.058 142.697 138.751 177.283 134.238C178.961 134.024 181.221 133.691 182.261 132.533ZM145.86 119.41C155.125 107.445 153.495 94.7032 151.023 80.8939C150.585 78.4399 150.352 75.5907 148.332 73.9408C146.956 72.8455 144.546 72.1661 142.375 71.5075C141.293 71.2302 140.136 70.8975 139.061 71.1748C137.404 71.4729 137.678 74.5855 138.054 76.4156C138.972 80.9009 139.321 85.3099 138.938 89.5455C138.164 100.214 132.117 110.142 123.729 116.443C104.351 130.183 70.6341 126.987 67.3336 159.84C66.9433 163.451 66.7927 167.167 66.5599 170.98C66.4229 172.99 66.7927 176.464 68.7579 175.313L68.8264 175.264C70.278 174.321 71.2915 171.514 72.0858 169.691C78.9127 152.512 93.4704 138.897 110.781 133.185C122.689 129.178 137.356 130.204 145.86 119.41ZM132.001 91.1192C132.652 86.6963 132.282 82.1556 131.323 77.7466C130.673 75.1262 130.2 72.3186 128.208 71.2649C127.139 70.7588 125.831 70.8697 124.654 71.0153C122.695 71.2926 120.518 71.6462 119.415 72.6028C118.032 73.7536 117.888 75.972 117.601 77.7744C115.369 95.5143 99.0237 107.681 82.6925 112.187C81.3778 112.686 80.426 113.213 79.7618 114.197C77.9267 117.656 76.5161 123.05 75.1192 126.613C74.7974 127.576 74.3865 128.762 74.6467 129.698L74.6673 129.767C76.1052 132.062 79.8713 128.949 81.6928 127.868C85.4657 125.427 89.3825 123.195 93.5868 121.538C106.364 116.408 118.82 116.45 127.016 103.972C129.563 100.152 131.385 95.5975 132.001 91.1192ZM109.281 83.5629C110.699 80.4295 110.233 76.8524 106.207 79.3896C99.7838 83.958 88.8484 94.9666 86.2532 102.433V102.544C86.1984 105.157 89.403 103.93 90.7862 103.078C98.7155 98.419 105.878 92.0065 109.281 83.5629Z" fill="white"/>
<path d="M190.485 186.349C190.513 187.056 190.28 187.715 189.862 188.311C189.842 188.332 189.814 188.346 189.794 188.366C185.076 191.112 177.215 189.94 171.874 189.954C165.218 189.739 158.09 189.878 151.462 189.864C126.27 189.878 106.049 189.815 76.4818 189.843C72.4487 189.829 68.5388 190.148 64.8343 188.394C63.458 187.763 62.4925 186.814 61.8146 185.656C70.8053 184.99 179.659 185.635 189.814 185.434C190.177 185.427 190.472 185.905 190.485 186.349Z" fill="white"/>
<path d="M189.794 188.366C189.794 188.366 189.842 188.332 189.862 188.311C188.595 190.148 185.651 191.368 183.604 191.625L183.473 191.645C178.975 192.394 174.236 191.937 169.689 191.999C157.898 191.999 146.079 191.999 134.281 191.999C113.314 191.749 92.2995 192.512 71.3668 191.666C69.0181 191.32 66.7927 190.696 64.8138 189.281C63.3347 188.366 61.527 185.996 61.7529 185.663C61.7735 185.663 61.794 185.663 61.8146 185.656C62.4925 186.814 63.458 187.763 64.8343 188.394C68.5388 190.148 72.4487 189.829 76.4818 189.843C106.049 189.815 126.27 189.878 151.462 189.864C158.09 189.878 165.218 189.739 171.874 189.954C177.215 189.94 185.076 191.112 189.794 188.366Z" fill="white"/>
</g>
<defs>
<filter id="filter0_d_404_1302" x="56" y="59.9191" width="142" height="138.162" filterUnits="userSpaceOnUse" color-interpolation-filters="sRGB">
<feFlood flood-opacity="0" result="BackgroundImageFix"/>
<feColorMatrix in="SourceAlpha" type="matrix" values="0 0 0 0 0 0 0 0 0 0 0 0 0 0 0 0 0 0 127 0" result="hardAlpha"/>
<feOffset dy="2"/>
<feGaussianBlur stdDeviation="2"/>
<feComposite in2="hardAlpha" operator="out"/>
<feColorMatrix type="matrix" values="0 0 0 0 0.156863 0 0 0 0 0.184314 0 0 0 0 0.294118 0 0 0 0.15 0"/>
<feBlend mode="normal" in2="BackgroundImageFix" result="effect1_dropShadow_404_1302"/>
<feBlend mode="normal" in="SourceGraphic" in2="effect1_dropShadow_404_1302" result="shape"/>
</filter>
<linearGradient id="paint0_linear_404_1302" x1="127" y1="185.42" x2="127" y2="511.387" gradientUnits="userSpaceOnUse">
<stop stop-color="#10B981"/>
<stop offset="1" stop-color="#1F3D35"/>
</linearGradient>
</defs>
</svg>
