<svg width="145" height="55" viewBox="0 0 145 55" fill="currentColor" xmlns="http://www.w3.org/2000/svg">
<path d="M20.3347 9.51561C33.6321 10.6564 37.6461 30.1367 36.9181 41.3895C36.8255 42.423 36.7291 43.7786 35.8574 44.4573C35.9728 44.2924 36.0371 44.1103 36.0295 43.9147C36.0257 43.792 35.9444 43.6597 35.8442 43.6616C33.0403 43.7172 2.98355 43.5389 0.50104 43.723C-0.0529401 42.7854 0.0642844 41.3704 0 40.3542C0.249575 29.1741 5.55493 8.89823 20.2968 9.5137H20.3347V9.51561ZM34.9537 37.6661C34.9726 37.3861 35.0104 37.0813 34.8781 36.8397C34.6871 36.4984 34.065 36.3891 33.6359 36.3623C28.3759 36.1303 22.9684 37.9633 19.2021 41.6446C18.7729 42.005 18.1925 43.0557 19.0357 43.1152C20.1796 43.1171 23.0724 43.0979 26.2999 43.0864C28.5895 43.0768 30.4557 43.0711 32.4636 43.0615C32.8966 43.0576 33.5754 43.0596 33.8344 43.0538C34.0764 43.0442 34.2844 42.9599 34.4167 42.7221L34.4262 42.7048C34.6115 42.3348 34.5907 41.9705 34.6587 41.2572C34.7514 40.1414 34.8837 38.5212 34.9537 37.6661ZM34.7514 34.3912C35.0804 33.8525 34.7589 33.1392 34.6379 32.3704C34.43 31.1318 33.8514 30.9841 32.6981 31.1279C24.4489 32.0962 16.4303 35.2732 10.9718 41.6637C10.1229 42.678 10.0435 43.4123 11.5164 43.3472C12.4655 43.3644 14.0821 43.4028 14.9329 43.4143C15.4831 43.4373 15.9633 43.2762 16.3188 42.8333L16.3396 42.8084C19.4895 38.4119 25.6457 35.0393 30.9284 34.7076C31.6222 34.6808 32.3558 34.7114 33.08 34.7325C33.6207 34.7383 34.4054 34.7996 34.7514 34.3912ZM33.7588 29.0303C34.0764 28.7082 34.0424 28.1484 33.9497 27.6997C33.0308 23.5314 31.3878 19.1886 28.4855 16.0442C27.1791 15.0165 27.544 17.0316 27.6782 17.8177C28.0582 20.247 27.6574 22.705 26.5135 24.9196C23.2955 31.7415 15.5209 29.3793 10.1834 33.5227C8.06013 35.139 6.71205 37.4571 5.42825 39.7617C4.94044 40.7012 4.32785 41.5851 3.89299 42.5476C3.35413 43.9396 4.94044 43.5849 6.10891 43.6328C6.74797 43.6194 7.48724 43.6904 7.94858 43.1708L7.96937 43.1497C13.5356 34.9837 22.8342 30.7502 32.3842 29.502C32.8474 29.4426 33.4714 29.3505 33.7588 29.0303ZM23.7077 25.4008C26.2658 22.0915 25.8159 18.5674 25.1333 14.748C25.0123 14.0693 24.948 13.2813 24.3902 12.8249C24.0102 12.522 23.3447 12.3341 22.7453 12.152C22.4466 12.0753 22.1271 11.9832 21.8302 12.0599C21.3727 12.1424 21.4483 13.0033 21.5523 13.5094C21.8056 14.75 21.9021 15.9694 21.7962 17.1409C21.5825 20.0917 19.913 22.8373 17.5969 24.5802C12.2462 28.3804 2.93628 27.4965 2.02496 36.5828C1.91719 37.5817 1.87559 38.6094 1.81131 39.6639C1.77349 40.22 1.87559 41.1806 2.41823 40.8623L2.43713 40.8489C2.83797 40.5881 3.11779 39.8116 3.33712 39.3073C5.22216 34.5561 9.24183 30.7905 14.0216 29.2106C17.3095 28.1023 21.3594 28.3861 23.7077 25.4008ZM19.8809 17.5761C20.0605 16.3529 19.9584 15.097 19.6937 13.8776C19.5141 13.1528 19.3836 12.3763 18.8334 12.0849C18.5385 11.9449 18.1774 11.9756 17.8521 12.0158C17.3114 12.0925 16.7102 12.1903 16.4058 12.4549C16.0238 12.7732 15.9841 13.3867 15.9047 13.8852C15.2883 18.7917 10.7752 22.1567 6.26584 23.4029C5.90282 23.541 5.64001 23.6867 5.45661 23.959C4.9499 24.9157 4.56041 26.4074 4.1747 27.3929C4.08584 27.6594 3.9724 27.9873 4.04424 28.2462L4.04992 28.2653C4.44697 28.9 5.48686 28.0391 5.98979 27.74C7.03158 27.0651 8.11307 26.4477 9.27397 25.9894C12.802 24.5706 16.2413 24.5821 18.5044 21.1309C19.2078 20.0744 19.7107 18.8147 19.8809 17.5761ZM13.6075 15.4862C13.9989 14.6196 13.8703 13.6302 12.7586 14.332C10.9851 15.5955 7.96559 18.6403 7.24901 20.7052V20.7359C7.23388 21.4588 8.11874 21.1194 8.50066 20.8835C10.6901 19.5951 12.6678 17.8215 13.6075 15.4862Z" fill="currentColor"/>
<path d="M36.0295 43.9147C36.0371 44.1103 35.9728 44.2924 35.8574 44.4573C35.8518 44.4631 35.8442 44.4669 35.8385 44.4726C34.5358 45.2319 32.3653 44.9079 30.8905 44.9117C29.0528 44.8523 27.0845 44.8906 25.2543 44.8868C18.2984 44.8906 12.7151 44.8734 4.55096 44.881C3.43732 44.8772 2.35772 44.9654 1.33485 44.4803C0.954812 44.3058 0.688221 44.0432 0.50104 43.723C2.98355 43.5389 33.0403 43.7172 35.8442 43.6616C35.9444 43.6597 36.0257 43.792 36.0295 43.9147Z" fill="currentColor"/>
<path d="M35.8385 44.4726C35.8385 44.4726 35.8518 44.4631 35.8574 44.4573C35.5077 44.9654 34.6947 45.3028 34.1293 45.3738L34.0934 45.3795C32.8512 45.5866 31.5428 45.4601 30.2874 45.4773C27.0316 45.4773 23.7682 45.4773 20.5105 45.4773C14.7211 45.4083 8.91851 45.6192 3.13859 45.3853C2.49007 45.2894 1.87559 45.1169 1.32917 44.7257C0.920779 44.4726 0.42163 43.8169 0.484024 43.7249C0.489696 43.7249 0.495368 43.7249 0.50104 43.723C0.688221 44.0432 0.954812 44.3058 1.33485 44.4803C2.35772 44.9654 3.43732 44.8772 4.55096 44.881C12.7151 44.8734 18.2984 44.8906 25.2543 44.8868C27.0845 44.8906 29.0528 44.8523 30.8905 44.9117C32.3653 44.9079 34.5358 45.2319 35.8385 44.4726Z" fill="currentColor"/>
<path d="M61.56 42.68C58.84 42.68 56.4533 42.1067 54.4 40.96C52.3467 39.8133 50.7333 38.2 49.56 36.12C48.4133 34.0133 47.84 31.5467 47.84 28.72C47.84 25.9467 48.4 23.52 49.52 21.44C50.6667 19.36 52.32 17.7467 54.48 16.6C56.64 15.4267 59.2267 14.84 62.24 14.84C63.68 14.84 65.0133 15 66.24 15.32C67.4933 15.64 68.6667 16.1067 69.76 16.72L69.92 22.44H68.84L66.84 18.4C66.52 17.76 66.2133 17.2933 65.92 17C65.6267 16.7067 65.24 16.4933 64.76 16.36C64.4133 16.2267 64.08 16.1467 63.76 16.12C63.44 16.0667 63.0267 16.04 62.52 16.04C60.84 16.04 59.36 16.48 58.08 17.36C56.8 18.2133 55.8 19.5733 55.08 21.44C54.3867 23.3067 54.04 25.7333 54.04 28.72C54.04 33.2267 54.7733 36.4933 56.24 38.52C57.7333 40.52 59.72 41.52 62.2 41.52C62.7867 41.52 63.2933 41.44 63.72 41.28C64.2267 41.2 64.5733 41 64.76 40.68C64.9467 40.3333 65.04 39.9067 65.04 39.4C65.04 38.3067 65.0267 37.12 65 35.84C65 34.5333 65 33.3467 65 32.28C65 31.24 64.4533 30.6 63.36 30.36L61.56 29.96V29.12H72.6V29.96L72.12 30.08C71.6133 30.24 71.2267 30.48 70.96 30.8C70.6933 31.0933 70.56 31.5067 70.56 32.04C70.56 33.1067 70.5467 34.2 70.52 35.32C70.52 36.4133 70.52 37.52 70.52 38.64V40.36C69.1333 41.1067 67.72 41.68 66.28 42.08C64.8667 42.48 63.2933 42.68 61.56 42.68ZM74.0509 42V41.24L74.6509 41.04C75.1843 40.9067 75.5443 40.68 75.7309 40.36C75.9443 40.04 76.0509 39.6133 76.0509 39.08V27.36C76.0243 26.7733 75.9176 26.3333 75.7309 26.04C75.5443 25.72 75.1843 25.5067 74.6509 25.4L74.0509 25.24V24.52L80.5709 22.2L81.0509 22.64L81.4109 26.16V26.44C81.8109 25.6933 82.3176 25 82.9309 24.36C83.5443 23.72 84.2109 23.2 84.9309 22.8C85.6509 22.4 86.3709 22.2 87.0909 22.2C88.1043 22.2 88.8643 22.4667 89.3709 23C89.8776 23.5333 90.1309 24.2133 90.1309 25.04C90.1309 25.9467 89.8776 26.64 89.3709 27.12C88.8643 27.5733 88.2509 27.8 87.5309 27.8C86.4643 27.8 85.5443 27.32 84.7709 26.36L84.6909 26.28C84.4243 25.96 84.1176 25.7867 83.7709 25.76C83.4509 25.7067 83.1309 25.8667 82.8109 26.24C82.5443 26.5067 82.2909 26.8267 82.0509 27.2C81.8376 27.5467 81.6376 27.96 81.4509 28.44V38.92C81.4509 39.4267 81.5576 39.8533 81.7709 40.2C81.9843 40.52 82.3443 40.7467 82.8509 40.88L84.0509 41.24V42H74.0509ZM96.4525 42.56C94.9325 42.56 93.6392 42.1333 92.5725 41.28C91.5325 40.4 91.0125 39.1467 91.0125 37.52C91.0125 36.24 91.6258 35.0667 92.8525 34C94.1058 32.9067 96.0658 32.1067 98.7325 31.6C99.1858 31.4933 99.7058 31.4 100.293 31.32C100.906 31.2133 101.506 31.1067 102.093 31V28.16C102.093 26.3467 101.866 25.0933 101.413 24.4C100.959 23.7067 100.239 23.36 99.2525 23.36H99.1325C98.5192 23.36 98.0258 23.56 97.6525 23.96C97.3058 24.3333 97.0792 24.96 96.9725 25.84L96.8525 26.36C96.7725 27.4267 96.4925 28.2133 96.0125 28.72C95.5325 29.2 94.9325 29.44 94.2125 29.44C93.5458 29.44 92.9858 29.24 92.5325 28.84C92.1058 28.4133 91.8925 27.8667 91.8925 27.2C91.8925 26.1067 92.2658 25.1867 93.0125 24.44C93.7592 23.6933 94.7458 23.1333 95.9725 22.76C97.2258 22.3867 98.5725 22.2 100.013 22.2C102.386 22.2 104.199 22.7733 105.453 23.92C106.706 25.0667 107.333 26.9333 107.333 29.52V38.44C107.333 39.5867 107.879 40.16 108.973 40.16H109.893L110.293 40.6C109.813 41.2133 109.279 41.68 108.693 42C108.106 42.3467 107.306 42.52 106.293 42.52C105.146 42.52 104.226 42.2533 103.533 41.72C102.866 41.16 102.426 40.4267 102.213 39.52C101.359 40.4267 100.519 41.16 99.6925 41.72C98.8658 42.28 97.7858 42.56 96.4525 42.56ZM98.7725 40C99.3058 40 99.8125 39.88 100.293 39.64C100.773 39.4 101.373 39 102.093 38.44V32.04C101.399 32.1467 100.693 32.28 99.9725 32.44C98.8258 32.7067 97.8925 33.2 97.1725 33.92C96.4792 34.64 96.1325 35.6133 96.1325 36.84C96.1325 37.9067 96.3725 38.7067 96.8525 39.24C97.3592 39.7467 97.9992 40 98.7725 40ZM115.839 20C114.959 20 114.213 19.72 113.599 19.16C112.986 18.6 112.679 17.8933 112.679 17.04C112.679 16.16 112.986 15.4533 113.599 14.92C114.213 14.36 114.959 14.08 115.839 14.08C116.719 14.08 117.466 14.36 118.079 14.92C118.693 15.4533 118.999 16.16 118.999 17.04C118.999 17.8933 118.693 18.6 118.079 19.16C117.466 19.72 116.719 20 115.839 20ZM111.239 42V41.24L111.839 41.08C112.373 40.92 112.733 40.68 112.919 40.36C113.106 40.04 113.213 39.6133 113.239 39.08V31.72C113.239 30.8933 113.239 30.1333 113.239 29.44C113.239 28.72 113.226 27.9867 113.199 27.24C113.199 26.7067 113.093 26.2933 112.879 26C112.693 25.68 112.333 25.4667 111.799 25.36L111.239 25.24V24.52L118.239 22.2L118.719 22.64L118.599 28.32V39.12C118.599 39.6533 118.693 40.08 118.879 40.4C119.093 40.72 119.453 40.96 119.959 41.12L120.399 41.24V42H111.239ZM122.176 42V41.24L122.816 41.08C123.696 40.8133 124.136 40.16 124.136 39.12V27.32C124.109 26.76 124.016 26.3333 123.856 26.04C123.696 25.72 123.349 25.5067 122.816 25.4L122.176 25.24V24.52L128.656 22.2L129.136 22.64L129.416 25.12C130.376 24.2667 131.443 23.5733 132.616 23.04C133.816 22.48 134.989 22.2 136.136 22.2C137.896 22.2 139.243 22.68 140.176 23.64C141.136 24.6 141.616 26.0667 141.616 28.04V39.16C141.616 40.2 142.096 40.8533 143.056 41.12L143.496 41.24V42H134.296V41.24L134.896 41.08C135.776 40.7867 136.216 40.1333 136.216 39.12V27.24C136.216 26.3067 136.016 25.6267 135.616 25.2C135.216 24.7733 134.549 24.56 133.616 24.56C132.309 24.56 130.949 25.1333 129.536 26.28V39.16C129.536 40.2 130.003 40.8533 130.936 41.12L131.336 41.24V42H122.176Z" fill="currentColor"/>
</svg>
