<svg width="56" height="54" viewBox="0 0 56 54" fill="currentColor" xmlns="http://www.w3.org/2000/svg">
<path d="M30.7768 0.0234205C50.9026 1.73465 56.9778 30.955 55.8761 47.8343C55.7359 49.3845 55.5899 51.4178 54.2707 52.436C54.4453 52.1886 54.5426 51.9154 54.5311 51.622C54.5254 51.438 54.4024 51.2395 54.2507 51.2424C50.0069 51.3258 4.51565 51.0583 0.758331 51.3344C-0.0801255 49.9281 0.0972953 47.8056 0 46.2813C0.377735 29.5112 8.40745 -0.902657 30.7196 0.0205445H30.7768V0.0234205ZM52.9029 42.2491C52.9315 41.8292 52.9887 41.3719 52.7884 41.0095C52.4994 40.4976 51.5579 40.3337 50.9083 40.2934C42.9473 39.9454 34.763 42.6949 29.0627 48.2168C28.4131 48.7575 27.5346 50.3336 28.8108 50.4227C30.5421 50.4256 34.9204 50.3969 39.8052 50.3796C43.2706 50.3652 46.0951 50.3566 49.1341 50.3422C49.7894 50.3365 50.8168 50.3393 51.2088 50.3307C51.5751 50.3163 51.8899 50.1898 52.0902 49.8332L52.1045 49.8073C52.3849 49.2522 52.3534 48.7058 52.4565 47.6359C52.5967 45.962 52.797 43.5318 52.9029 42.2491ZM52.5967 37.3369C53.0946 36.5287 52.6081 35.4588 52.425 34.3055C52.1102 32.4476 51.2346 32.2262 49.489 32.4419C37.0037 33.8943 24.8675 38.6598 16.606 48.2456C15.3211 49.767 15.201 50.8685 17.4302 50.7707C18.8667 50.7966 21.3134 50.8541 22.6011 50.8714C23.4339 50.9059 24.1607 50.6643 24.6987 50L24.7302 49.9626C29.4976 43.3679 38.8151 38.309 46.8105 37.8114C47.8607 37.7711 48.971 37.8172 50.067 37.8488C50.8854 37.8574 52.073 37.9495 52.5967 37.3369ZM51.0943 29.2955C51.5751 28.8123 51.5236 27.9726 51.3834 27.2996C49.9926 21.0471 47.5059 14.5329 43.1133 9.81626C41.1359 8.27471 41.6882 11.2974 41.8913 12.4766C42.4665 16.1205 41.8599 19.8075 40.1286 23.1293C35.2581 33.3622 23.4911 29.819 15.4127 36.034C12.1991 38.4585 10.1588 41.9356 8.21573 45.3926C7.47743 46.8018 6.55026 48.1277 5.89209 49.5714C5.07652 51.6594 7.47743 51.1274 9.24591 51.1993C10.2131 51.1791 11.332 51.2855 12.0303 50.5061L12.0618 50.4745C20.4864 38.2256 34.5599 31.8753 49.0139 30.003C49.715 29.9139 50.6594 29.7758 51.0943 29.2955ZM35.8819 23.8512C39.7537 18.8872 39.0726 13.6011 38.0396 7.87207C37.8564 6.85396 37.7592 5.67192 36.915 4.98743C36.3398 4.53301 35.3325 4.25116 34.4254 3.97794C33.9732 3.8629 33.4896 3.72485 33.0403 3.83989C32.3478 3.96356 32.4623 5.25489 32.6197 6.01416C33.0031 7.87495 33.1491 9.70409 32.9888 11.4613C32.6655 15.8875 30.1386 20.006 26.6332 22.6203C18.5348 28.3205 4.44411 26.9947 3.0648 40.6241C2.90169 42.1226 2.83873 43.6641 2.74144 45.2459C2.68421 46.08 2.83873 47.5208 3.66002 47.0434L3.68864 47.0233C4.2953 46.6321 4.71882 45.4674 5.05077 44.711C7.90381 37.5842 13.9876 31.9357 21.2218 29.5659C26.1982 27.9035 32.3278 28.3292 35.8819 23.8512ZM30.09 12.1142C30.3619 10.2793 30.2073 8.3955 29.8067 6.56636C29.5348 5.47922 29.3374 4.31444 28.5047 3.87728C28.0582 3.66733 27.5117 3.71335 27.0195 3.77375C26.201 3.88879 25.291 4.03546 24.8303 4.43235C24.2523 4.90977 24.1922 5.8301 24.072 6.57786C23.1391 13.9376 16.3084 18.985 9.48343 20.8544C8.934 21.0615 8.53623 21.2801 8.25865 21.6885C7.49174 23.1236 6.90224 25.3611 6.31847 26.8394C6.18397 27.2392 6.01228 27.731 6.12102 28.1192L6.1296 28.148C6.73054 29.0999 8.30444 27.8086 9.06563 27.36C10.6424 26.3476 12.2792 25.4215 14.0363 24.7342C19.3761 22.6059 24.5814 22.6232 28.0067 17.4463C29.0713 15.8616 29.8324 13.9721 30.09 12.1142ZM20.5951 8.97934C21.1875 7.67938 20.9929 6.19535 19.3103 7.24797C16.626 9.14327 12.056 13.7104 10.9715 16.8079V16.8539C10.9486 17.9381 12.2878 17.4291 12.8659 17.0753C16.1796 15.1426 19.1729 12.4823 20.5951 8.97934Z" fill="currentColor"/>
<path d="M54.5311 51.622C54.5426 51.9154 54.4453 52.1886 54.2707 52.436C54.2621 52.4446 54.2507 52.4503 54.2421 52.459C52.2705 53.5979 48.9853 53.1118 46.7532 53.1176C43.9717 53.0284 40.9928 53.0859 38.2227 53.0802C27.6948 53.0859 19.2444 53.06 6.88793 53.0715C5.20244 53.0658 3.56845 53.1981 2.02031 52.4705C1.44512 52.2087 1.04163 51.8147 0.758331 51.3344C4.51565 51.0583 50.0069 51.3258 54.2507 51.2424C54.4024 51.2395 54.5254 51.438 54.5311 51.622Z" fill="currentColor"/>
<path d="M54.2421 52.459C54.2421 52.459 54.2621 52.4446 54.2707 52.436C53.7413 53.1981 52.5108 53.7043 51.6552 53.8107L51.6008 53.8193C49.7207 54.1299 47.7405 53.9401 45.8404 53.966C40.9127 53.966 35.9735 53.966 31.0429 53.966C22.2806 53.8625 13.4983 54.1788 4.7503 53.8279C3.76876 53.6841 2.83873 53.4253 2.01172 52.8386C1.39361 52.459 0.638142 51.4754 0.732576 51.3373C0.741161 51.3373 0.749746 51.3373 0.758331 51.3344C1.04163 51.8147 1.44512 52.2087 2.02031 52.4705C3.56845 53.1981 5.20244 53.0658 6.88793 53.0715C19.2444 53.06 27.6948 53.0859 38.2227 53.0802C40.9928 53.0859 43.9717 53.0284 46.7532 53.1176C48.9853 53.1118 52.2705 53.5979 54.2421 52.459Z" fill="currentColor"/>
</svg>
